<?xml version="1.0" standalone="no"?>
<!DOCTYPE svg PUBLIC "-//W3C//DTD SVG 20010904//EN"
 "http://www.w3.org/TR/2001/REC-SVG-20010904/DTD/svg10.dtd">
<svg version="1.0" xmlns="http://www.w3.org/2000/svg"
 width="514.000000pt" height="165.000000pt" viewBox="0 0 514.000000 165.000000"
 preserveAspectRatio="xMidYMid meet">
<metadata>
Created by potrace 1.14, written by Peter Selinger 2001-2017
</metadata>
<g transform="translate(0.000000,165.000000) scale(0.100000,-0.100000)"
fill="#000000" stroke="none">
<path d="M1281 1628 c-29 -20 -78 -117 -382 -751 -274 -573 -349 -737 -349
-768 0 -53 40 -98 95 -105 84 -12 71 -35 456 770 274 571 349 736 349 767 0
86 -98 137 -169 87z"/>
<path d="M355 1382 c-20 -13 -84 -103 -190 -268 -146 -227 -159 -253 -159
-294 0 -41 14 -67 159 -294 104 -161 171 -256 190 -268 71 -45 165 9 165 94 0
36 -17 68 -132 247 -73 113 -132 213 -132 221 0 8 59 108 132 221 116 181 132
212 132 249 0 34 -6 48 -34 76 -40 40 -83 45 -131 16z"/>
<path d="M1514 1366 c-28 -28 -34 -42 -34 -76 0 -38 16 -67 132 -249 73 -113
132 -213 132 -221 0 -8 -59 -108 -132 -221 -115 -179 -132 -211 -132 -247 0
-89 97 -141 168 -90 21 15 90 112 189 268 143 223 157 249 157 290 0 41 -13
66 -159 294 -106 165 -170 255 -190 268 -48 29 -91 24 -131 -16z"/>
<path d="M4894 1141 c-116 -30 -162 -176 -83 -266 l30 -34 -21 -21 c-66 -66
-66 -187 1 -256 80 -83 245 -60 292 39 19 40 23 138 6 170 -6 12 -20 32 -31
44 l-20 22 28 36 c40 53 46 145 12 194 -13 19 -37 43 -55 53 -36 22 -114 31
-159 19z m147 -80 c24 -24 29 -38 29 -76 0 -25 -5 -55 -10 -66 -16 -28 -63
-49 -114 -49 -104 0 -155 122 -81 196 20 20 34 24 85 24 55 0 65 -3 91 -29z
m0 -280 c26 -26 29 -36 29 -91 0 -55 -3 -65 -29 -91 -25 -24 -38 -29 -80 -29
-62 0 -93 13 -114 50 -32 53 -15 153 30 179 10 6 44 11 76 11 52 0 62 -4 88
-29z"/>
<path d="M2270 1116 c0 -24 2 -25 78 -28 l77 -3 3 -283 2 -283 28 3 27 3 3
283 2 282 81 0 c78 0 80 1 77 23 -3 22 -5 22 -190 25 l-188 2 0 -24z"/>
<path d="M2794 951 c-59 -36 -64 -51 -64 -204 0 -111 3 -145 16 -167 54 -90
240 -87 282 5 14 31 16 75 3 75 -5 0 -16 3 -25 6 -12 5 -16 0 -16 -19 0 -14
-11 -39 -24 -54 -21 -25 -31 -28 -81 -28 -50 0 -60 3 -81 28 -20 23 -24 39
-24 88 l0 59 130 0 130 0 0 74 c0 84 -18 118 -76 142 -49 20 -133 18 -170 -5z
m172 -56 c20 -20 25 -33 22 -68 l-3 -42 -102 -3 -103 -3 0 46 c0 67 31 95 105
95 46 0 60 -4 81 -25z"/>
<path d="M3247 946 c-35 -24 -36 -24 -53 -5 -9 10 -21 19 -26 19 -4 0 -7 -98
-6 -217 l3 -218 25 0 25 0 3 170 c2 156 4 171 24 192 14 15 35 23 67 25 42 3
46 5 49 31 3 25 1 27 -36 27 -25 0 -52 -9 -75 -24z"/>
<path d="M3540 959 c-13 -6 -32 -17 -41 -25 -16 -14 -18 -14 -29 5 -25 48 -30
16 -30 -199 l0 -220 25 0 25 0 0 175 c0 173 0 176 25 200 19 20 34 25 75 25
41 0 56 -5 75 -25 25 -24 25 -27 25 -200 l0 -175 24 0 25 0 3 176 3 176 28 24
c37 31 103 33 140 3 l27 -20 2 -177 3 -177 25 0 25 0 3 168 c3 195 -5 225 -69
257 -63 33 -150 19 -186 -29 -10 -14 -14 -14 -35 5 -48 44 -110 56 -168 33z"/>
<path d="M4418 948 c-35 -20 -39 -21 -56 -5 -10 9 -22 17 -25 17 -4 0 -7 -99
-7 -220 l0 -220 24 0 25 0 3 176 3 176 28 24 c37 32 112 34 150 3 l27 -20 2
-177 3 -177 25 0 25 0 3 168 c3 193 -4 220 -67 255 -50 28 -114 28 -163 0z"/>
<path d="M4132 743 l3 -218 28 -3 27 -3 0 220 0 221 -30 0 -30 0 2 -217z"/>
</g>
</svg>
